<svg width="100" height="78" viewBox="0 0 100 78" fill="none" xmlns="http://www.w3.org/2000/svg">
<g clip-path="url(#clip0)">
<path d="M53.08 56.33H0V24.65L26.5 4.97998L53.04 24.65L53.08 56.33ZM5.42 50.91H47.65V27.38L26.5 11.74L5.38 27.38L5.42 50.91Z" fill="#1D1D1B"/>
<path d="M79.85 56.33H26.77V24.65L53.31 4.97998L79.85 24.65V56.33ZM32.19 50.91H74.42V27.38L53.31 11.74L32.19 27.38V50.91Z" fill="#1D1D1B"/>
<path d="M99.16 13.62H85.34V8.95999H90.44V4.66H85.34V0H99.16V4.66H94.26V8.95999H99.16V13.62Z" fill="#878787"/>
<path d="M92.25 15.69C96.43 15.69 99.47 18.99 99.47 23.49C99.47 27.99 96.47 31.28 92.25 31.28C88.03 31.28 85.03 27.99 85.03 23.49C85.03 18.99 88.07 15.69 92.25 15.69ZM92.25 26.59C92.8498 26.5262 93.4181 26.29 93.8864 25.9099C94.3546 25.5297 94.7027 25.0221 94.8884 24.4483C95.0741 23.8745 95.0896 23.2591 94.9328 22.6767C94.7761 22.0943 94.454 21.5698 94.0053 21.1667C93.5567 20.7636 93.0009 20.4992 92.4051 20.4055C91.8093 20.3117 91.1992 20.3926 90.6484 20.6384C90.0977 20.8842 89.63 21.2844 89.3019 21.7905C88.9739 22.2966 88.7995 22.8869 88.8 23.49C88.805 23.9259 88.9004 24.3561 89.0801 24.7533C89.2599 25.1505 89.5202 25.506 89.8445 25.7974C90.1687 26.0888 90.55 26.3097 90.9641 26.4461C91.3782 26.5826 91.816 26.6315 92.25 26.59Z" fill="#878787"/>
<path d="M91.56 33.24H99.16V37.9H91.7C89.59 37.9 88.8 38.7 88.8 40.01C88.8 41.32 89.59 42.12 91.7 42.12H99.16V46.7H91.56C87.42 46.7 85.03 44.21 85.03 39.97C85.03 35.73 87.42 33.24 91.56 33.24Z" fill="#878787"/>
<path d="M86.5 48.34L89.89 49.84C89.091 51.2253 88.6574 52.791 88.63 54.39C88.63 55.72 88.91 56.19 89.38 56.19C91.12 56.19 89.72 48.55 94.87 48.55C97.43 48.55 99.52 50.7 99.52 54.99C99.5545 56.7989 99.1424 58.5884 98.32 60.2L94.95 58.79C95.582 57.6069 95.9247 56.291 95.95 54.95C95.95 53.59 95.56 53.15 95.08 53.15C93.43 53.15 94.81 60.79 89.72 60.79C87.19 60.79 85.06 58.64 85.06 54.35C85.0229 52.257 85.5184 50.1889 86.5 48.34Z" fill="#878787"/>
<g style="mix-blend-mode:multiply">
<g style="mix-blend-mode:multiply">
<path d="M48.07 62.9299V76.7399H43.41V71.6499H39.11V76.7399H34.5V62.9299H39.16V67.8199H43.46V62.9299H48.07Z" fill="#1D1D1B"/>
</g>
<g style="mix-blend-mode:multiply">
<path d="M50.14 69.83C50.14 65.65 53.44 62.61 57.94 62.61C62.44 62.61 65.73 65.61 65.73 69.83C65.73 74.05 62.44 77.05 57.94 77.05C53.44 77.05 50.14 74.02 50.14 69.83ZM61.03 69.83C60.9625 69.2336 60.7238 68.6695 60.3428 68.2058C59.9618 67.742 59.4548 67.3984 58.8828 67.2164C58.3109 67.0344 57.6986 67.0218 57.1196 67.1801C56.5407 67.3383 56.0199 67.6607 55.6201 68.1084C55.2203 68.5561 54.9586 69.1098 54.8666 69.7029C54.7745 70.296 54.856 70.903 55.1013 71.4508C55.3465 71.9986 55.745 72.4637 56.2487 72.7901C56.7525 73.1164 57.3398 73.29 57.94 73.29C58.3765 73.2853 58.8072 73.1896 59.2047 73.0092C59.6021 72.8287 59.9576 72.5673 60.2484 72.2417C60.5392 71.9161 60.7588 71.5335 60.8934 71.1182C61.028 70.703 61.0745 70.2642 61.03 69.83Z" fill="#1D1D1B"/>
</g>
<g style="mix-blend-mode:multiply">
<path d="M80.14 76.7399V70.4399L77.14 75.4999H75.09L72.09 70.6599V76.7399H67.85V62.9299H71.67L76.17 70.2899L80.55 62.9299H84.38V76.7399H80.14Z" fill="#1D1D1B"/>
</g>
<g style="mix-blend-mode:multiply">
<path d="M98.5 73.2299V76.7399H87.01V62.9299H98.24V66.4699H91.59V68.0899H97.43V71.4399H91.59V73.2599L98.5 73.2299Z" fill="#1D1D1B"/>
</g>
</g>
</g>
<defs>
<clipPath id="clip0">
<rect width="99.48" height="77.05" fill="white"/>
</clipPath>
</defs>
</svg>
